<svg xmlns="http://www.w3.org/2000/svg" viewBox="0 0 128 128">
  <rect width="128" height="128" rx="30" fill="#09141f"/>
  <path d="M22 64c0-23.2 18.8-42 42-42 18.1 0 33.5 11.4 39.4 27.4" fill="none" stroke="#46d6b3" stroke-width="12" stroke-linecap="round"/>
  <path d="M106 64c0 23.2-18.8 42-42 42-18.1 0-33.5-11.4-39.4-27.4" fill="none" stroke="#5ca9ff" stroke-width="12" stroke-linecap="round"/>
  <path d="M47 86V41h20.5c13.1 0 21.5 6.9 21.5 18.1 0 7.9-4.2 13.6-11.6 16.2L91 86H75L64.2 77H61v9H47Zm14-21h6c5.1 0 7.8-1.8 7.8-5.5S72.1 54 67 54h-6v11Z" fill="#f3f7f9"/>
</svg>
